<svg width="54" height="57" viewBox="0 0 54 57" fill="none" xmlns="http://www.w3.org/2000/svg">
<g filter="url(#filter0_dd_147_871)">
<path fill-rule="evenodd" clip-rule="evenodd" d="M12.0755 30.507L25.9323 44.3638C26.5181 44.9495 27.4678 44.9495 28.0536 44.3638L41.9104 30.507C46.0298 26.3876 46.0298 19.7088 41.9104 15.5895C37.7911 11.4702 31.1123 11.4702 26.993 15.5895C22.8725 11.4841 16.2042 11.4888 12.0895 15.6034C7.97486 19.7181 7.97014 26.3865 12.0755 30.507ZM14.2311 28.4199L26.993 41.1818L39.7891 28.3856C42.7369 25.4379 42.7369 20.6586 39.7891 17.7108C36.8413 14.7631 32.0621 14.7631 29.1143 17.7108L28.0556 18.7695C27.4706 19.3545 26.5223 19.3554 25.9362 18.7715L24.8756 17.7147C21.9271 14.777 17.1553 14.7804 14.2109 17.7248C11.2664 20.6692 11.2631 25.441 14.2008 28.3895L14.2311 28.4199Z" fill="url(#paint0_linear_147_871)"/>
<path fill-rule="evenodd" clip-rule="evenodd" d="M12.0755 30.507L25.9323 44.3638C26.5181 44.9495 27.4678 44.9495 28.0536 44.3638L41.9104 30.507C46.0298 26.3876 46.0298 19.7088 41.9104 15.5895C37.7911 11.4702 31.1123 11.4702 26.993 15.5895C22.8725 11.4841 16.2042 11.4888 12.0895 15.6034C7.97486 19.7181 7.97014 26.3865 12.0755 30.507ZM14.2311 28.4199L26.993 41.1818L39.7891 28.3856C42.7369 25.4379 42.7369 20.6586 39.7891 17.7108C36.8413 14.7631 32.0621 14.7631 29.1143 17.7108L28.0556 18.7695C27.4706 19.3545 26.5223 19.3554 25.9362 18.7715L24.8756 17.7147C21.9271 14.777 17.1553 14.7804 14.2109 17.7248C11.2664 20.6692 11.2631 25.441 14.2008 28.3895L14.2311 28.4199Z" fill="url(#paint1_linear_147_871)"/>
<path d="M26.7813 15.802L26.9934 16.0134L27.2051 15.8016C31.2073 11.7995 37.6961 11.7995 41.6983 15.8016C45.7005 19.8038 45.7005 26.2927 41.6983 30.2948L27.8415 44.1516C27.3729 44.6203 26.6131 44.6203 26.1444 44.1516L12.288 30.2952C8.29943 26.292 8.30401 19.8132 12.3017 15.8156C16.2993 11.8179 22.778 11.8134 26.7813 15.802ZM14.0186 28.6317L14.019 28.6321L26.7808 41.3939L26.993 41.606L27.2051 41.3939L40.0012 28.5978C43.0662 25.5329 43.0662 20.5636 40.0012 17.4987C36.9363 14.4338 31.9671 14.4338 28.9022 17.4987L27.8435 18.5574C27.3754 19.0254 26.6168 19.0261 26.148 18.5589L25.0873 17.5022C22.0216 14.4477 17.0602 14.4512 13.9987 17.5126C10.9373 20.5741 10.9338 25.5355 13.9883 28.6012L14.0186 28.6317Z" stroke="url(#paint2_linear_147_871)" stroke-width="0.6"/>
<path d="M26.7813 15.802L26.9934 16.0134L27.2051 15.8016C31.2073 11.7995 37.6961 11.7995 41.6983 15.8016C45.7005 19.8038 45.7005 26.2927 41.6983 30.2948L27.8415 44.1516C27.3729 44.6203 26.6131 44.6203 26.1444 44.1516L12.288 30.2952C8.29943 26.292 8.30401 19.8132 12.3017 15.8156C16.2993 11.8179 22.778 11.8134 26.7813 15.802ZM14.0186 28.6317L14.019 28.6321L26.7808 41.3939L26.993 41.606L27.2051 41.3939L40.0012 28.5978C43.0662 25.5329 43.0662 20.5636 40.0012 17.4987C36.9363 14.4338 31.9671 14.4338 28.9022 17.4987L27.8435 18.5574C27.3754 19.0254 26.6168 19.0261 26.148 18.5589L25.0873 17.5022C22.0216 14.4477 17.0602 14.4512 13.9987 17.5126C10.9373 20.5741 10.9338 25.5355 13.9883 28.6012L14.0186 28.6317Z" stroke="url(#paint3_linear_147_871)" stroke-width="0.6"/>
</g>
<defs>
<filter id="filter0_dd_147_871" x="0" y="0.5" width="54" height="56.3031" filterUnits="userSpaceOnUse" color-interpolation-filters="sRGB">
<feFlood flood-opacity="0" result="BackgroundImageFix"/>
<feColorMatrix in="SourceAlpha" type="matrix" values="0 0 0 0 0 0 0 0 0 0 0 0 0 0 0 0 0 0 127 0" result="hardAlpha"/>
<feOffset dx="-1" dy="-4"/>
<feGaussianBlur stdDeviation="4"/>
<feComposite in2="hardAlpha" operator="out"/>
<feColorMatrix type="matrix" values="0 0 0 0 0.258824 0 0 0 0 0.270588 0 0 0 0 0.290196 0 0 0 0.9 0"/>
<feBlend mode="normal" in2="BackgroundImageFix" result="effect1_dropShadow_147_871"/>
<feColorMatrix in="SourceAlpha" type="matrix" values="0 0 0 0 0 0 0 0 0 0 0 0 0 0 0 0 0 0 127 0" result="hardAlpha"/>
<feOffset dx="1" dy="4"/>
<feGaussianBlur stdDeviation="4"/>
<feComposite in2="hardAlpha" operator="out"/>
<feColorMatrix type="matrix" values="0 0 0 0 0.0980392 0 0 0 0 0.109804 0 0 0 0 0.129412 0 0 0 1 0"/>
<feBlend mode="normal" in2="effect1_dropShadow_147_871" result="effect2_dropShadow_147_871"/>
<feBlend mode="normal" in="SourceGraphic" in2="effect2_dropShadow_147_871" result="shape"/>
</filter>
<linearGradient id="paint0_linear_147_871" x1="11" y1="16.3519" x2="34.6516" y2="38.9081" gradientUnits="userSpaceOnUse">
<stop stop-color="#E46670"/>
<stop offset="1" stop-color="#C44650"/>
</linearGradient>
<linearGradient id="paint1_linear_147_871" x1="27" y1="12" x2="27.0899" y2="44.9998" gradientUnits="userSpaceOnUse">
<stop stop-color="#2D2E33"/>
<stop offset="1" stop-color="#222529"/>
</linearGradient>
<linearGradient id="paint2_linear_147_871" x1="9" y1="12.9815" x2="43.7559" y2="46.0662" gradientUnits="userSpaceOnUse">
<stop stop-color="#CF515B"/>
<stop offset="1" stop-color="#E3656F"/>
</linearGradient>
<linearGradient id="paint3_linear_147_871" x1="39.5" y1="38.5" x2="11.4348" y2="14.5764" gradientUnits="userSpaceOnUse">
<stop stop-color="#2D2E33"/>
<stop offset="1" stop-color="#222529"/>
</linearGradient>
</defs>
</svg>
