<svg width="54" height="54" viewBox="0 0 54 54" fill="none" xmlns="http://www.w3.org/2000/svg">
<g clip-path="url(#clip0_150_952)">
<rect width="54" height="54" rx="4" fill="#70F0B4" fill-opacity="0.25"/>
<g clip-path="url(#clip1_150_952)">
<path d="M38 27L18 27C17.7348 27 17.4804 26.8946 17.2929 26.7071C17.1054 26.5196 17 26.2652 17 26L17 6C17 5.73478 16.8946 5.48043 16.7071 5.29289C16.5196 5.10536 16.2652 5 16 5C15.7348 5 15.4804 5.10536 15.2929 5.29289C15.1054 5.48043 15 5.73478 15 6L15 26C15 26.7956 15.3161 27.5587 15.8787 28.1213C16.4413 28.6839 17.2044 29 18 29L38 29C38.2652 29 38.5196 28.8946 38.7071 28.7071C38.8946 28.5196 39 28.2652 39 28C39 27.7348 38.8946 27.4804 38.7071 27.2929C38.5196 27.1054 38.2652 27 38 27Z" fill="#70F0B4"/>
<path d="M30 25C30.2652 25 30.5196 24.8946 30.7071 24.7071C30.8946 24.5196 31 24.2652 31 24L31 17C31 16.7348 30.8946 16.4804 30.7071 16.2929C30.5196 16.1054 30.2652 16 30 16C29.7348 16 29.4804 16.1054 29.2929 16.2929C29.1054 16.4804 29 16.7348 29 17L29 24C29 24.2652 29.1054 24.5196 29.2929 24.7071C29.4804 24.8946 29.7348 25 30 25Z" fill="#70F0B4"/>
<path d="M22 25C22.2652 25 22.5196 24.8946 22.7071 24.7071C22.8946 24.5196 23 24.2652 23 24L23 17C23 16.7348 22.8946 16.4804 22.7071 16.2929C22.5196 16.1054 22.2652 16 22 16C21.7348 16 21.4804 16.1054 21.2929 16.2929C21.1054 16.4804 21 16.7348 21 17L21 24C21 24.2652 21.1054 24.5196 21.2929 24.7071C21.4804 24.8946 21.7348 25 22 25Z" fill="#70F0B4"/>
<path d="M34 25C34.2652 25 34.5196 24.8946 34.7071 24.7071C34.8946 24.5196 35 24.2652 35 24L35 12C35 11.7348 34.8946 11.4804 34.7071 11.2929C34.5196 11.1054 34.2652 11 34 11C33.7348 11 33.4804 11.1054 33.2929 11.2929C33.1054 11.4804 33 11.7348 33 12L33 24C33 24.2652 33.1054 24.5196 33.2929 24.7071C33.4804 24.8946 33.7348 25 34 25Z" fill="#70F0B4"/>
<path d="M26 25C26.2652 25 26.5196 24.8946 26.7071 24.7071C26.8946 24.5196 27 24.2652 27 24L27 12C27 11.7348 26.8946 11.4804 26.7071 11.2929C26.5196 11.1054 26.2652 11 26 11C25.7348 11 25.4804 11.1054 25.2929 11.2929C25.1054 11.4804 25 11.7348 25 12L25 24C25 24.2652 25.1054 24.5196 25.2929 24.7071C25.4804 24.8946 25.7348 25 26 25Z" fill="#70F0B4"/>
</g>
<path d="M16.2308 45L15.2348 45L15.2348 36.996L18.4508 36.996C19.2268 36.996 19.8388 37.228 20.2868 37.692C20.7348 38.156 20.9588 38.728 20.9588 39.408C20.9588 40.088 20.7308 40.66 20.2748 41.124C19.8268 41.588 19.2188 41.82 18.4508 41.82L16.2308 41.82L16.2308 45ZM18.3308 40.932C18.8028 40.932 19.1868 40.792 19.4828 40.512C19.7788 40.224 19.9268 39.856 19.9268 39.408C19.9268 38.96 19.7788 38.596 19.4828 38.316C19.1868 38.028 18.8028 37.884 18.3308 37.884L16.2308 37.884L16.2308 40.932L18.3308 40.932ZM23.1418 45H22.2418L22.2418 39.204L23.1418 39.204L23.1418 40.14C23.6778 39.436 24.3218 39.084 25.0738 39.084L25.0738 40.008C24.9618 39.984 24.8418 39.972 24.7138 39.972C24.4418 39.972 24.1458 40.068 23.8258 40.26C23.5058 40.452 23.2778 40.664 23.1418 40.896L23.1418 45ZM26.6467 38.376C26.4867 38.376 26.3467 38.32 26.2267 38.208C26.1067 38.088 26.0467 37.944 26.0467 37.776C26.0467 37.608 26.1067 37.464 26.2267 37.344C26.3467 37.224 26.4867 37.164 26.6467 37.164C26.8147 37.164 26.9587 37.224 27.0787 37.344C27.1987 37.464 27.2587 37.608 27.2587 37.776C27.2587 37.944 27.1987 38.088 27.0787 38.208C26.9587 38.32 26.8147 38.376 26.6467 38.376ZM27.1027 45H26.2027L26.2027 39.204H27.1027L27.1027 45ZM31.454 45.144C30.598 45.144 29.902 44.856 29.366 44.28C28.83 43.696 28.562 42.968 28.562 42.096C28.562 41.224 28.83 40.5 29.366 39.924C29.902 39.348 30.598 39.06 31.454 39.06C32.35 39.06 33.058 39.396 33.578 40.068L32.978 40.62C32.61 40.116 32.118 39.864 31.502 39.864C30.894 39.864 30.406 40.072 30.038 40.488C29.678 40.904 29.498 41.44 29.498 42.096C29.498 42.752 29.678 43.292 30.038 43.716C30.406 44.132 30.894 44.34 31.502 44.34C32.11 44.34 32.602 44.088 32.978 43.584L33.578 44.136C33.058 44.808 32.35 45.144 31.454 45.144ZM37.4555 45.144C36.5915 45.144 35.8835 44.864 35.3315 44.304C34.7795 43.736 34.5035 43 34.5035 42.096C34.5035 41.248 34.7755 40.532 35.3195 39.948C35.8635 39.356 36.5435 39.06 37.3595 39.06C38.2155 39.06 38.8915 39.356 39.3875 39.948C39.8915 40.532 40.1435 41.272 40.1435 42.168V42.396L35.4515 42.396C35.4915 42.964 35.6995 43.44 36.0755 43.824C36.4515 44.208 36.9395 44.4 37.5395 44.4C38.2595 44.4 38.8555 44.156 39.3275 43.668L39.7595 44.256C39.1675 44.848 38.3995 45.144 37.4555 45.144ZM39.2555 41.736C39.2475 41.24 39.0795 40.796 38.7515 40.404C38.4235 40.004 37.9555 39.804 37.3475 39.804C36.7715 39.804 36.3155 40 35.9795 40.392C35.6515 40.784 35.4755 41.232 35.4515 41.736L39.2555 41.736Z" fill="#70F0B4"/>
</g>
<defs>
<clipPath id="clip0_150_952">
<rect width="54" height="54" fill="white"/>
</clipPath>
<clipPath id="clip1_150_952">
<rect width="24" height="24" fill="white" transform="translate(15 5)"/>
</clipPath>
</defs>
</svg>
