<svg width="58" height="57" viewBox="0 0 58 57" fill="none" xmlns="http://www.w3.org/2000/svg">
<path d="M43 26.3599C43 25.3066 42.9076 24.3066 42.7493 23.3333H27.8365V29.3466H36.3751C35.9924 31.3199 34.8706 32.9866 33.2078 34.1199V38.1199H38.3019C41.2844 35.3333 43 31.2266 43 26.3599Z" fill="#4285F4"/>
<path d="M27.8365 41.9999C32.1124 41.9999 35.6888 40.5599 38.3018 38.1199L33.2077 34.1199C31.7824 35.0799 29.9744 35.6666 27.8365 35.6666C23.7058 35.6666 20.2086 32.8532 18.9548 29.0532H13.7024V33.1732C16.3022 38.3999 21.6471 41.9999 27.8365 41.9999Z" fill="#34A853"/>
<path d="M18.9549 29.0533C18.6249 28.0933 18.4534 27.0667 18.4534 26C18.4534 24.9333 18.6381 23.9067 18.9549 22.9467V18.8267H13.7024C12.6203 20.9867 12 23.4133 12 26C12 28.5867 12.6203 31.0133 13.7024 33.1733L18.9549 29.0533Z" fill="#FBBC05"/>
<path d="M27.8365 16.3333C30.1724 16.3333 32.2575 17.1467 33.9072 18.7333L38.4206 14.1733C35.6888 11.5867 32.1124 10 27.8365 10C21.6471 10 16.3022 13.6 13.7024 18.8267L18.9548 22.9467C20.2086 19.1467 23.7058 16.3333 27.8365 16.3333Z" fill="#EA4335"/>
<g filter="url(#filter0_bdii_228_1149)">
<rect x="4" y="2" width="48" height="48" rx="12" fill="white" fill-opacity="0.530029"/>
</g>
<g opacity="0.528898" filter="url(#filter1_f_228_1149)">
<path d="M47 30.3599C47 29.3066 46.9076 28.3066 46.7493 27.3333H31.8365V33.3466H40.3751C39.9924 35.3199 38.8706 36.9866 37.2078 38.1199V42.1199H42.3019C45.2844 39.3333 47 35.2266 47 30.3599Z" fill="#4285F4"/>
</g>
<g opacity="0.528898" filter="url(#filter2_f_228_1149)">
<path d="M31.8365 45.9999C36.1124 45.9999 39.6888 44.5599 42.3018 42.1199L37.2077 38.1199C35.7824 39.0799 33.9744 39.6666 31.8365 39.6666C27.7058 39.6666 24.2086 36.8532 22.9548 33.0532H17.7024V37.1732C20.3022 42.3999 25.6471 45.9999 31.8365 45.9999Z" fill="#34A853"/>
</g>
<g opacity="0.528898" filter="url(#filter3_f_228_1149)">
<path d="M22.9549 33.0533C22.6249 32.0933 22.4534 31.0667 22.4534 30C22.4534 28.9333 22.6381 27.9067 22.9549 26.9467V22.8267H17.7024C16.6203 24.9867 16 27.4133 16 30C16 32.5867 16.6203 35.0133 17.7024 37.1733L22.9549 33.0533Z" fill="#FBBC05"/>
</g>
<g opacity="0.528898" filter="url(#filter4_f_228_1149)">
<path d="M31.8365 20.3333C34.1724 20.3333 36.2575 21.1467 37.9072 22.7333L42.4206 18.1733C39.6888 15.5867 36.1124 14 31.8365 14C25.6471 14 20.3022 17.6 17.7024 22.8267L22.9548 26.9467C24.2086 23.1467 27.7058 20.3333 31.8365 20.3333Z" fill="#EA4335"/>
</g>
<g filter="url(#filter5_d_228_1149)">
<path d="M43 26.3599C43 25.3066 42.9076 24.3066 42.7493 23.3333H27.8365V29.3466H36.3751C35.9924 31.3199 34.8706 32.9866 33.2078 34.1199V38.1199H38.3019C41.2844 35.3333 43 31.2266 43 26.3599Z" fill="#4285F4"/>
<path d="M27.8365 41.9999C32.1124 41.9999 35.6888 40.5599 38.3018 38.1199L33.2077 34.1199C31.7824 35.0799 29.9744 35.6666 27.8365 35.6666C23.7058 35.6666 20.2086 32.8532 18.9548 29.0532H13.7024V33.1732C16.3022 38.3999 21.6471 41.9999 27.8365 41.9999Z" fill="#34A853"/>
<path d="M18.9549 29.0533C18.6249 28.0933 18.4534 27.0667 18.4534 26C18.4534 24.9333 18.6381 23.9067 18.9549 22.9467V18.8267H13.7024C12.6203 20.9867 12 23.4133 12 26C12 28.5867 12.6203 31.0133 13.7024 33.1733L18.9549 29.0533Z" fill="#FBBC05"/>
<path d="M27.8365 16.3333C30.1724 16.3333 32.2575 17.1467 33.9072 18.7333L38.4206 14.1733C35.6888 11.5867 32.1124 10 27.8365 10C21.6471 10 16.3022 13.6 13.7024 18.8267L18.9548 22.9467C20.2086 19.1467 23.7058 16.3333 27.8365 16.3333Z" fill="#EA4335"/>
</g>
<defs>
<filter id="filter0_bdii_228_1149" x="-6.87313" y="-8.87313" width="69.7463" height="69.7463" filterUnits="userSpaceOnUse" color-interpolation-filters="sRGB">
<feFlood flood-opacity="0" result="BackgroundImageFix"/>
<feGaussianBlur in="BackgroundImage" stdDeviation="5.43656"/>
<feComposite in2="SourceAlpha" operator="in" result="effect1_backgroundBlur_228_1149"/>
<feColorMatrix in="SourceAlpha" type="matrix" values="0 0 0 0 0 0 0 0 0 0 0 0 0 0 0 0 0 0 127 0" result="hardAlpha"/>
<feOffset dy="2"/>
<feGaussianBlur stdDeviation="2"/>
<feColorMatrix type="matrix" values="0 0 0 0 0 0 0 0 0 0 0 0 0 0 0 0 0 0 0.12 0"/>
<feBlend mode="normal" in2="effect1_backgroundBlur_228_1149" result="effect2_dropShadow_228_1149"/>
<feBlend mode="normal" in="SourceGraphic" in2="effect2_dropShadow_228_1149" result="shape"/>
<feColorMatrix in="SourceAlpha" type="matrix" values="0 0 0 0 0 0 0 0 0 0 0 0 0 0 0 0 0 0 127 0" result="hardAlpha"/>
<feOffset dx="8" dy="8"/>
<feGaussianBlur stdDeviation="12"/>
<feComposite in2="hardAlpha" operator="arithmetic" k2="-1" k3="1"/>
<feColorMatrix type="matrix" values="0 0 0 0 1 0 0 0 0 1 0 0 0 0 1 0 0 0 1 0"/>
<feBlend mode="normal" in2="shape" result="effect3_innerShadow_228_1149"/>
<feColorMatrix in="SourceAlpha" type="matrix" values="0 0 0 0 0 0 0 0 0 0 0 0 0 0 0 0 0 0 127 0" result="hardAlpha"/>
<feOffset dx="-4" dy="-4"/>
<feGaussianBlur stdDeviation="12"/>
<feComposite in2="hardAlpha" operator="arithmetic" k2="-1" k3="1"/>
<feColorMatrix type="matrix" values="0 0 0 0 1 0 0 0 0 1 0 0 0 0 1 0 0 0 0.04 0"/>
<feBlend mode="normal" in2="effect3_innerShadow_228_1149" result="effect4_innerShadow_228_1149"/>
</filter>
<filter id="filter1_f_228_1149" x="20.9634" y="16.4601" width="36.9097" height="36.5329" filterUnits="userSpaceOnUse" color-interpolation-filters="sRGB">
<feFlood flood-opacity="0" result="BackgroundImageFix"/>
<feBlend mode="normal" in="SourceGraphic" in2="BackgroundImageFix" result="shape"/>
<feGaussianBlur stdDeviation="5.43656" result="effect1_foregroundBlur_228_1149"/>
</filter>
<filter id="filter2_f_228_1149" x="6.82927" y="22.1801" width="46.3456" height="34.693" filterUnits="userSpaceOnUse" color-interpolation-filters="sRGB">
<feFlood flood-opacity="0" result="BackgroundImageFix"/>
<feBlend mode="normal" in="SourceGraphic" in2="BackgroundImageFix" result="shape"/>
<feGaussianBlur stdDeviation="5.43656" result="effect1_foregroundBlur_228_1149"/>
</filter>
<filter id="filter3_f_228_1149" x="5.12687" y="11.9535" width="28.7011" height="36.0929" filterUnits="userSpaceOnUse" color-interpolation-filters="sRGB">
<feFlood flood-opacity="0" result="BackgroundImageFix"/>
<feBlend mode="normal" in="SourceGraphic" in2="BackgroundImageFix" result="shape"/>
<feGaussianBlur stdDeviation="5.43656" result="effect1_foregroundBlur_228_1149"/>
</filter>
<filter id="filter4_f_228_1149" x="6.82927" y="3.12687" width="46.4644" height="34.693" filterUnits="userSpaceOnUse" color-interpolation-filters="sRGB">
<feFlood flood-opacity="0" result="BackgroundImageFix"/>
<feBlend mode="normal" in="SourceGraphic" in2="BackgroundImageFix" result="shape"/>
<feGaussianBlur stdDeviation="5.43656" result="effect1_foregroundBlur_228_1149"/>
</filter>
<filter id="filter5_d_228_1149" x="8" y="4" width="39" height="40" filterUnits="userSpaceOnUse" color-interpolation-filters="sRGB">
<feFlood flood-opacity="0" result="BackgroundImageFix"/>
<feColorMatrix in="SourceAlpha" type="matrix" values="0 0 0 0 0 0 0 0 0 0 0 0 0 0 0 0 0 0 127 0" result="hardAlpha"/>
<feOffset dy="-2"/>
<feGaussianBlur stdDeviation="2"/>
<feColorMatrix type="matrix" values="0 0 0 0 1 0 0 0 0 1 0 0 0 0 1 0 0 0 1 0"/>
<feBlend mode="normal" in2="BackgroundImageFix" result="effect1_dropShadow_228_1149"/>
<feBlend mode="normal" in="SourceGraphic" in2="effect1_dropShadow_228_1149" result="shape"/>
</filter>
</defs>
</svg>
