<svg width="24" height="24" fill="none" xmlns="http://www.w3.org/2000/svg"><g clip-path="url(#clip0_150_2156)" fill="#2D2E33"><path d="M16 0h-.13a2.02 2.02 0 00-1.941 1.532 2 2 0 01-3.858 0A2.02 2.02 0 008.13 0H8a5.006 5.006 0 00-5 5v16a3 3 0 003 3h2.13a2.02 2.02 0 001.94-1.532 2 2 0 013.859 0A2.02 2.02 0 0015.869 24H18a3 3 0 003-3V5a5.006 5.006 0 00-5-5zm2 22l-2.143-.063A4 4 0 008.13 22H6a1 1 0 01-1-1v-4h2a1 1 0 100-2H5V5a3 3 0 013-3l.143.063A4.01 4.01 0 0012 5a4.071 4.071 0 003.893-3H16a3 3 0 013 3v10h-2a1 1 0 000 2h2v4a1 1 0 01-1 1z"/><path d="M13 15h-2a1 1 0 000 2h2a1 1 0 000-2z"/></g><defs><clipPath id="clip0_150_2156"><path fill="#fff" d="M0 0h24v24H0z"/></clipPath></defs></svg>