<svg width="54" height="54" fill="none" xmlns="http://www.w3.org/2000/svg"><g clip-path="url(#clip0_154_788)" fill="#3CBC80"><path d="M38 27H18a1 1 0 01-1-1V6a1 1 0 10-2 0v20a3 3 0 003 3h20a1 1 0 100-2z"/><path d="M30 25a1 1 0 001-1v-7a1 1 0 10-2 0v7a1 1 0 001 1zm-8 0a1 1 0 001-1v-7a1 1 0 10-2 0v7a1 1 0 001 1zm12 0a1 1 0 001-1V12a1 1 0 10-2 0v12a1 1 0 001 1zm-8 0a1 1 0 001-1V12a1 1 0 10-2 0v12a1 1 0 001 1z"/></g><path d="M16.23 45h-.995v-8.004h3.216c.776 0 1.388.232 1.836.696.448.464.672 1.036.672 1.716 0 .68-.228 1.252-.684 1.716-.448.464-1.056.696-1.824.696h-2.22V45zm2.1-4.068c.473 0 .857-.14 1.153-.42.296-.288.444-.656.444-1.104 0-.448-.148-.812-.444-1.092-.296-.288-.68-.432-1.152-.432h-2.1v3.048h2.1zM23.143 45h-.9v-5.796h.9v.936c.536-.704 1.18-1.056 1.932-1.056v.924a1.716 1.716 0 00-.36-.036c-.272 0-.568.096-.888.288-.32.192-.548.404-.684.636V45zm3.505-6.624a.596.596 0 01-.6-.6.59.59 0 01.18-.432c.12-.12.26-.18.42-.18a.59.59 0 01.432.18c.12.12.18.264.18.432a.59.59 0 01-.18.432.61.61 0 01-.432.168zM27.103 45h-.9v-5.796h.9V45zm4.351.144c-.856 0-1.552-.288-2.088-.864-.536-.584-.804-1.312-.804-2.184 0-.872.268-1.596.804-2.172.536-.576 1.232-.864 2.088-.864.896 0 1.604.336 2.124 1.008l-.6.552c-.368-.504-.86-.756-1.476-.756-.608 0-1.096.208-1.464.624-.36.416-.54.952-.54 1.608 0 .656.18 1.196.54 1.62.368.416.856.624 1.464.624s1.1-.252 1.476-.756l.6.552c-.52.672-1.228 1.008-2.124 1.008zm6.001 0c-.864 0-1.572-.28-2.124-.84-.552-.568-.828-1.304-.828-2.208 0-.848.272-1.564.816-2.148.544-.592 1.224-.888 2.04-.888.856 0 1.532.296 2.028.888.504.584.756 1.324.756 2.22v.228h-4.692c.04.568.248 1.044.624 1.428.376.384.864.576 1.464.576.72 0 1.316-.244 1.788-.732l.432.588c-.592.592-1.36.888-2.304.888zm1.8-3.408a2.074 2.074 0 00-.504-1.332c-.328-.4-.796-.6-1.404-.6-.576 0-1.032.196-1.368.588-.328.392-.504.84-.528 1.344h3.804z" fill="#3CBC80"/><defs><clipPath id="clip0_154_788"><path fill="#fff" transform="translate(15 5)" d="M0 0h24v24H0z"/></clipPath></defs></svg>