<svg width="16" height="16" viewBox="0 0 16 16" fill="none" xmlns="http://www.w3.org/2000/svg">
<circle cx="8" cy="8" r="6" fill="#70F0B4" fill-opacity="0.25"/>
<path d="M14 8C14 8.78793 13.8448 9.56815 13.5433 10.2961C13.2417 11.0241 12.7998 11.6855 12.2426 12.2426C11.6855 12.7998 11.0241 13.2417 10.2961 13.5433C9.56815 13.8448 8.78793 14 8 14C7.21207 14 6.43185 13.8448 5.7039 13.5433C4.97595 13.2417 4.31451 12.7998 3.75736 12.2426C3.20021 11.6855 2.75825 11.0241 2.45672 10.2961C2.15519 9.56815 2 8.78793 2 8C2 7.21207 2.15519 6.43185 2.45672 5.7039C2.75825 4.97595 3.20021 4.31451 3.75736 3.75736C4.31451 3.20021 4.97595 2.75825 5.7039 2.45672C6.43185 2.15519 7.21207 2 8 2C8.78793 2 9.56815 2.15519 10.2961 2.45672C11.0241 2.75825 11.6855 3.20021 12.2426 3.75736C12.7998 4.31451 13.2417 4.97595 13.5433 5.7039C13.8448 6.43185 14 7.21207 14 8L14 8Z" stroke="#70F0B4" stroke-width="1.2" stroke-linecap="round"/>
</svg>
