<svg width="16" height="16" viewBox="0 0 16 16" fill="none" xmlns="http://www.w3.org/2000/svg">
<circle cx="8" cy="8" r="6" fill="#70F0B4" fill-opacity="0.25"/>
<path d="M6.35992 6.18659C6.09482 5.98776 5.71874 6.04149 5.51992 6.30659C5.3211 6.57168 5.37482 6.94776 5.63992 7.14659L6.35992 6.18659ZM13.7848 3.72835C14.003 3.47897 13.9777 3.09992 13.7284 2.88171C13.479 2.6635 13.0999 2.68877 12.8817 2.93815L13.7848 3.72835ZM5.63992 7.14659L7.56469 8.59016L8.28469 7.63016L6.35992 6.18659L5.63992 7.14659ZM9.72881 8.36377L13.7848 3.72835L12.8817 2.93815L8.82572 7.57356L9.72881 8.36377ZM7.56469 8.59016C8.23425 9.09233 9.17768 8.99363 9.72881 8.36377L8.82572 7.57356C8.68794 7.73103 8.45208 7.7557 8.28469 7.63016L7.56469 8.59016Z" fill="#70F0B4"/>
<path d="M14 8C14 9.25366 13.6073 10.4758 12.8771 11.4949C12.1469 12.5139 11.1158 13.2786 9.92864 13.6816C8.74151 14.0846 7.45797 14.1056 6.25829 13.7416C5.05861 13.3777 4.00306 12.6472 3.23988 11.6526C2.4767 10.658 2.04423 9.4493 2.00321 8.19631C1.96219 6.94333 2.31469 5.70896 3.01118 4.66658C3.70768 3.6242 4.71319 2.82617 5.8865 2.38456C7.05981 1.94296 8.34197 1.87997 9.55291 2.20444" stroke="#70F0B4" stroke-width="1.2" stroke-linecap="round"/>
</svg>
