<svg width="16" height="17" fill="none" xmlns="http://www.w3.org/2000/svg"><g clip-path="url(#clip0_301_994)" fill="#3CBC80"><path d="M4.667.586h-2A2.667 2.667 0 000 3.253v2a2.667 2.667 0 002.667 2.666h2a2.667 2.667 0 002.666-2.666v-2A2.667 2.667 0 004.667.586zM6 5.253a1.333 1.333 0 01-1.333 1.333h-2a1.333 1.333 0 01-1.334-1.333v-2a1.333 1.333 0 011.334-1.334h2A1.333 1.333 0 016 3.253v2zM13.333.586h-2a2.667 2.667 0 00-2.666 2.667v2a2.667 2.667 0 002.666 2.666h2A2.667 2.667 0 0016 5.253v-2A2.667 2.667 0 0013.333.586zm1.334 4.667a1.333 1.333 0 01-1.334 1.333h-2A1.333 1.333 0 0110 5.253v-2a1.333 1.333 0 011.333-1.334h2a1.333 1.333 0 011.334 1.334v2zm-10 4h-2A2.667 2.667 0 000 11.919v2a2.667 2.667 0 002.667 2.667h2a2.667 2.667 0 002.666-2.667v-2a2.667 2.667 0 00-2.666-2.666zM6 13.919a1.333 1.333 0 01-1.333 1.334h-2a1.334 1.334 0 01-1.334-1.334v-2a1.333 1.333 0 011.334-1.333h2A1.334 1.334 0 016 11.919v2zm7.333-4.666h-2a2.667 2.667 0 00-2.666 2.666v2a2.667 2.667 0 002.666 2.667h2A2.667 2.667 0 0016 13.919v-2a2.667 2.667 0 00-2.667-2.666zm1.334 4.666a1.333 1.333 0 01-1.334 1.334h-2A1.333 1.333 0 0110 13.919v-2a1.333 1.333 0 011.333-1.333h2a1.333 1.333 0 011.334 1.333v2z"/></g><defs><clipPath id="clip0_301_994"><path fill="#fff" transform="translate(0 .586)" d="M0 0h16v16H0z"/></clipPath></defs></svg>