<svg width="24" height="24" fill="none" xmlns="http://www.w3.org/2000/svg"><g clip-path="url(#clip0_150_2140)" fill="#2D2E33"><path d="M12 8a4 4 0 100 8 4 4 0 000-8zm0 6a2 2 0 110-4.001 2 2 0 010 4z"/><path d="M21.294 13.9l-.444-.256a9.1 9.1 0 000-3.29l.444-.256a3 3 0 001.1-4.1 3.003 3.003 0 00-4.1-1.1l-.445.257a8.976 8.976 0 00-2.85-1.642V3a3 3 0 10-6 0v.513a8.977 8.977 0 00-2.847 1.646l-.447-.26a3.002 3.002 0 10-3 5.2l.444.257a9.1 9.1 0 000 3.29l-.444.256a3.002 3.002 0 003 5.2l.445-.257A8.976 8.976 0 009 20.487V21a3 3 0 006 0v-.513a8.975 8.975 0 002.848-1.646l.447.258a3.001 3.001 0 103-5.2h-.001zm-2.548-3.776a7.047 7.047 0 010 3.75 1 1 0 00.464 1.133l1.084.626a1 1 0 11-1 1.733l-1.086-.628a1 1 0 00-1.215.165 6.983 6.983 0 01-3.243 1.875 1 1 0 00-.751.969V21a1 1 0 11-2 0v-1.252a1 1 0 00-.751-.97A6.984 6.984 0 017.006 16.9a1 1 0 00-1.215-.165l-1.084.627a.999.999 0 11-1-1.732l1.084-.626a1 1 0 00.464-1.133 7.048 7.048 0 010-3.75 1 1 0 00-.465-1.13l-1.084-.625a1 1 0 011-1.733l1.086.628A1 1 0 007.006 7.1a6.984 6.984 0 013.243-1.875 1 1 0 00.75-.973V3a1 1 0 012 0v1.252a1 1 0 00.752.969A6.984 6.984 0 0116.994 7.1a1 1 0 001.215.165l1.084-.627a1 1 0 111 1.732l-1.084.626a1 1 0 00-.463 1.129v-.001z"/></g><defs><clipPath id="clip0_150_2140"><path fill="#fff" d="M0 0h24v24H0z"/></clipPath></defs></svg>