<svg width="16" height="16" fill="none" xmlns="http://www.w3.org/2000/svg"><g clip-path="url(#clip0_150_2601)" fill="#2D2E33"><path d="M8 5.333a2.667 2.667 0 100 5.334 2.667 2.667 0 000-5.334zm0 4a1.333 1.333 0 110-2.666 1.333 1.333 0 010 2.666z"/><path d="M14.196 9.267l-.296-.171a6.065 6.065 0 000-2.193l.296-.171a2 2 0 00-.481-3.666 2.001 2.001 0 00-1.519.2l-.297.17A5.985 5.985 0 0010 2.343V2a2 2 0 10-4 0v.342a5.985 5.985 0 00-1.899 1.097l-.298-.172a2.001 2.001 0 00-2 3.466l.296.17a6.067 6.067 0 000 2.194l-.296.17a2.001 2.001 0 102 3.468l.297-.172c.56.48 1.205.85 1.9 1.095V14a2 2 0 104 0v-.342a5.984 5.984 0 001.899-1.097l.298.172a2 2 0 102-3.467h-.001zm-1.699-2.518a4.7 4.7 0 010 2.5.666.666 0 00.31.756l.722.417a.667.667 0 01-.666 1.155l-.724-.418a.667.667 0 00-.81.11 4.656 4.656 0 01-2.162 1.25.666.666 0 00-.501.646V14a.667.667 0 11-1.333 0v-.835a.667.667 0 00-.501-.646 4.657 4.657 0 01-2.161-1.252.667.667 0 00-.81-.11l-.723.418a.666.666 0 11-.667-1.155l.723-.417a.667.667 0 00.31-.756 4.699 4.699 0 010-2.5.667.667 0 00-.31-.752l-.723-.418a.667.667 0 11.666-1.155l.724.419a.667.667 0 00.81-.108 4.656 4.656 0 012.162-1.25.667.667 0 00.5-.648V2a.667.667 0 011.334 0v.835a.667.667 0 00.5.646 4.656 4.656 0 012.162 1.252.666.666 0 00.81.11l.723-.418a.667.667 0 11.667 1.155l-.723.417a.666.666 0 00-.309.753z"/></g><defs><clipPath id="clip0_150_2601"><path fill="#fff" d="M0 0h16v16H0z"/></clipPath></defs></svg>