<svg width="16" height="16" fill="none" xmlns="http://www.w3.org/2000/svg"><g clip-path="url(#clip0_150_2383)"><path d="M1.071 12a2 2 0 002.732.735l.002-.002.296-.171c.56.48 1.204.85 1.899 1.096V14a2 2 0 004 0v-.342a5.987 5.987 0 001.899-1.097l.298.172a2.001 2.001 0 102-3.467l-.296-.17a6.065 6.065 0 000-2.194l.296-.17a2.001 2.001 0 00-2-3.467l-.297.171A5.984 5.984 0 0010 2.342V2a2 2 0 00-4 0v.342A5.984 5.984 0 004.1 3.44l-.298-.172a2.001 2.001 0 10-2 3.466l.296.171a6.067 6.067 0 000 2.193l-.296.171A2.004 2.004 0 001.071 12zM8 5.333a2.667 2.667 0 110 5.334 2.667 2.667 0 010-5.334z" fill="#2D2E33"/></g><defs><clipPath id="clip0_150_2383"><path fill="#fff" d="M0 0h16v16H0z"/></clipPath></defs></svg>